<?xml version="1.0" encoding="UTF-8"?>
<svg version="1.1" xmlns="http://www.w3.org/2000/svg" width="245" height="298">
<path d="M0 0 C80.85 0 161.7 0 245 0 C245 98.34 245 196.68 245 298 C164.15 298 83.3 298 0 298 C0 199.66 0 101.32 0 0 Z " fill="#FEFEFE" transform="translate(0,0)"/>
<path d="M0 0 C0.66636475 0.31582031 1.33272949 0.63164063 2.01928711 0.95703125 C4.68082045 2.33857974 6.54013744 3.49882756 8.13671875 6.0703125 C9.12665822 10.2704025 9.82171156 14.480324 10.4375 18.75 C10.63859375 20.04647461 10.63859375 20.04647461 10.84375 21.36914062 C11.62039787 26.6194387 11.94808307 31.63127178 11.8125 36.9375 C11.1525 36.9375 10.4925 36.9375 9.8125 36.9375 C9.4103125 35.72126953 9.4103125 35.72126953 9 34.48046875 C3.98364353 20.30596148 -3.58010837 10.55189971 -16.75 3.25 C-34.68080412 -5.08092745 -54.63738811 -5.50804043 -73.1875 0.9375 C-85.62267734 5.79025213 -99.9885672 15.5396344 -106.1875 27.9375 C-104.06180698 27.69346273 -101.9370177 27.44156603 -99.8125 27.1875 C-99.11205566 27.10387207 -98.41161133 27.02024414 -97.68994141 26.93408203 C-93.14129632 26.36900295 -88.62707996 25.68961598 -84.109375 24.9140625 C-62.86913225 21.30290038 -39.36768272 17.56109831 -20.1875 29.9375 C-10.83537606 37.11859517 -6.98247223 46.75761106 -4.1875 57.9375 C-4.1875 63.5475 -4.1875 69.1575 -4.1875 74.9375 C8.0225 74.9375 20.2325 74.9375 32.8125 74.9375 C32.8125 75.9275 32.8125 76.9175 32.8125 77.9375 C31.78189453 78.10185547 31.78189453 78.10185547 30.73046875 78.26953125 C29.82941406 78.42808594 28.92835938 78.58664063 28 78.75 C26.66001953 78.97623047 26.66001953 78.97623047 25.29296875 79.20703125 C22.49448823 80.03115071 21.58095948 80.65297214 19.8125 82.9375 C19.35812482 85.2972444 19.35812482 85.2972444 19.42431641 87.96875 C19.41013168 89.50680298 19.41013168 89.50680298 19.3956604 91.07592773 C19.40173309 92.18524658 19.40780579 93.29456543 19.4140625 94.4375 C19.41119232 95.58355713 19.40832214 96.72961426 19.40536499 97.91040039 C19.40332106 100.34147636 19.40887375 102.77256865 19.42138672 105.20361328 C19.43731763 108.89524029 19.42160938 112.5857527 19.40234375 116.27734375 C19.40432842 118.64323156 19.40817671 121.00911868 19.4140625 123.375 C19.40495346 125.0146875 19.40495346 125.0146875 19.3956604 126.6875 C19.53632802 142.31523849 24.92216859 157.62213283 35.7734375 168.9921875 C49.44361494 182.07015508 67.24128618 185.382136 85.53149414 185.22998047 C89.41835851 185.13714734 93.00589392 184.77739173 96.8125 183.9375 C99.14551986 183.89925377 101.47961508 183.89175716 103.8125 183.9375 C103.8125 184.5975 103.8125 185.2575 103.8125 185.9375 C92.8401708 190.57963928 81.68805848 191.29955418 69.875 191.3125 C68.70259766 191.33699219 67.53019531 191.36148438 66.32226562 191.38671875 C49.06046335 191.4439086 34.7625964 184.7450894 22.54296875 172.796875 C13.39733092 163.21946886 7.71849769 152.05190201 5.8125 138.9375 C5.0596875 139.44539062 4.306875 139.95328125 3.53125 140.4765625 C-2.54755864 144.4159846 -8.52423841 147.75135502 -15.3125 150.3125 C-15.93189453 150.55049316 -16.55128906 150.78848633 -17.18945312 151.03369141 C-27.17922227 154.63073445 -37.26629226 155.3255093 -47.8125 155.3125 C-49.03710938 155.31233887 -50.26171875 155.31217773 -51.5234375 155.31201172 C-62.29066176 155.17713747 -73.57368453 154.27316759 -83.1875 148.9375 C-82.11814717 158.72726185 -82.11814717 158.72726185 -77.1875 166.9375 C-73.88428862 169.32948065 -70.17116713 169.4778461 -66.1875 169.9375 C-66.1875 170.5975 -66.1875 171.2575 -66.1875 171.9375 C-81.3675 171.9375 -96.5475 171.9375 -112.1875 171.9375 C-112.1875 171.2775 -112.1875 170.6175 -112.1875 169.9375 C-111.51203125 169.77894531 -110.8365625 169.62039062 -110.140625 169.45703125 C-104.65634607 168.02255945 -101.21308262 167.06783575 -98.1875 161.9375 C-97.06926185 159.70102369 -96.99353939 158.28858471 -96.87109375 155.8046875 C-96.80825195 154.59619141 -96.80825195 154.59619141 -96.74414062 153.36328125 C-96.70482422 152.52152344 -96.66550781 151.67976562 -96.625 150.8125 C-96.56022461 149.53826172 -96.56022461 149.53826172 -96.49414062 148.23828125 C-96.38795764 146.13821777 -96.28721503 144.03788052 -96.1875 141.9375 C-97.26257813 141.56625 -97.26257813 141.56625 -98.359375 141.1875 C-114.80510287 133.91867 -125.60171997 116.22610306 -132.0625 100.1875 C-139.30428025 81.24745934 -138.5687977 58.28899125 -130.421875 39.86328125 C-119.76832425 16.91140223 -103.11016355 2.45711705 -79.5859375 -6.421875 C-53.65714267 -14.80167286 -24.26365506 -11.52819245 0 0 Z " fill="#AE9654" transform="translate(137.1875,49.0625)"/>
<path d="M0 0 C7.77632315 2.9550028 14.59118333 7.6434049 18.69140625 15.03515625 C24.35478041 28.69388216 24.84830166 44.62493524 19.296875 58.30078125 C15.7276086 65.25738542 10.83531703 71.03708542 3.375 73.84765625 C-4.48359161 75.57243435 -13.66381872 76.05253948 -20.73046875 71.7109375 C-24.4408023 68.72434802 -27.74229373 65.3792877 -28.3125 60.4375 C-28.9725 60.4375 -29.6325 60.4375 -30.3125 60.4375 C-29.58452257 62.66511093 -28.84817463 64.8892369 -28.09765625 67.109375 C-27.50750061 68.85928922 -26.93648602 70.61567714 -26.375 72.375 C-25.03321475 74.97964196 -23.94929382 75.24698991 -21.3125 76.4375 C-20.5803125 76.77910156 -19.848125 77.12070313 -19.09375 77.47265625 C-17.96453125 77.98119141 -17.96453125 77.98119141 -16.8125 78.5 C-15.68328125 79.01240234 -15.68328125 79.01240234 -14.53125 79.53515625 C-4.19103795 83.74041855 6.64740727 81.43978354 16.6875 77.4375 C26.00711883 72.81452702 31.59141114 63.65369992 35.6875 54.4375 C36.38657414 51.70177415 36.38657414 51.70177415 36.6875 49.4375 C40 49.625 40 49.625 43.6875 50.4375 C47.51315387 54.82017527 47.23570081 59.74230149 47.33203125 65.26953125 C47.35150314 66.2201091 47.37097504 67.17068695 47.39103699 68.15007019 C47.42369321 70.15794915 47.44752831 72.16598841 47.46313477 74.17407227 C47.49978024 77.23166378 47.6057164 80.28207024 47.71289062 83.33789062 C47.98111184 97.53478978 47.98111184 97.53478978 44.61035156 102.49267578 C42.05659622 104.57806723 39.66392959 106.03727734 36.6875 107.4375 C35.63820313 108.08203125 34.58890625 108.7265625 33.5078125 109.390625 C14.02588839 118.76453631 -6.88900153 121.85041139 -27.92578125 115.80078125 C-32.23186609 114.06742068 -36.25478042 111.69178865 -40.3125 109.4375 C-40.3125 74.1275 -40.3125 38.8175 -40.3125 2.4375 C-31.37976457 0.20431614 -31.37976457 0.20431614 -26.9375 -0.125 C-5.75117016 -1.73201263 -5.75117016 -1.73201263 0 0 Z " fill="#FDFDFC" transform="translate(94.3125,78.5625)"/>
<path d="M0 0 C0.66636475 0.31582031 1.33272949 0.63164063 2.01928711 0.95703125 C4.68082045 2.33857974 6.54013744 3.49882756 8.13671875 6.0703125 C9.12665822 10.2704025 9.82171156 14.480324 10.4375 18.75 C10.63859375 20.04647461 10.63859375 20.04647461 10.84375 21.36914062 C11.62039787 26.6194387 11.94808307 31.63127178 11.8125 36.9375 C11.1525 36.9375 10.4925 36.9375 9.8125 36.9375 C9.4103125 35.72126953 9.4103125 35.72126953 9 34.48046875 C3.98364353 20.30596148 -3.58010837 10.55189971 -16.75 3.25 C-34.68080412 -5.08092745 -54.63738811 -5.50804043 -73.1875 0.9375 C-87.06280566 6.35225343 -98.53006628 15.95134942 -106.8125 28.375 C-107.26625 28.890625 -107.72 29.40625 -108.1875 29.9375 C-109.5075 29.9375 -110.8275 29.9375 -112.1875 29.9375 C-112.1875 30.5975 -112.1875 31.2575 -112.1875 31.9375 C-111.5275 31.9375 -110.8675 31.9375 -110.1875 31.9375 C-110.36925781 32.47117188 -110.55101563 33.00484375 -110.73828125 33.5546875 C-112.6803961 39.31131511 -114.54216332 45.08837117 -116.1875 50.9375 C-116.54199219 52.14019531 -116.89648438 53.34289062 -117.26171875 54.58203125 C-118.48822039 59.56677187 -118.48727757 64.45229906 -118.4375 69.5625 C-118.43169922 71.00423584 -118.43169922 71.00423584 -118.42578125 72.47509766 C-118.33381253 80.10211475 -117.62130056 87.43565064 -116.1875 94.9375 C-115.40375 95.040625 -114.62 95.14375 -113.8125 95.25 C-111.1875 95.9375 -111.1875 95.9375 -109.1875 98.9375 C-108.85201394 105.08807784 -108.85201394 105.08807784 -109.921875 107.796875 C-110.34672449 111.22066207 -108.55157398 112.98609369 -106.625 115.75 C-105.89152344 116.81992188 -105.15804687 117.88984375 -104.40234375 118.9921875 C-102.60314815 121.38476859 -100.83767406 123.3227955 -98.6875 125.375 C-95.68634719 128.61948953 -95.82181104 131.55467857 -95.8125 135.875 C-95.9082633 137.89742967 -96.02362802 139.91944689 -96.1875 141.9375 C-110.78377797 136.89705869 -121.56153883 121.96902688 -128.31933594 108.72216797 C-137.32476269 90.20988744 -139.93740752 67.23474703 -133.578125 47.41796875 C-123.51249089 22.22560923 -108.14746424 5.71706154 -83.1875 -5.0625 C-56.51837571 -15.12850353 -25.34137906 -12.04024266 0 0 Z " fill="#050505" transform="translate(137.1875,49.0625)"/>
<path d="M0 0 C12.54 0 25.08 0 38 0 C38 0.66 38 1.32 38 2 C37.31292969 2.10957031 36.62585938 2.21914062 35.91796875 2.33203125 C35.01691406 2.49058594 34.11585938 2.64914063 33.1875 2.8125 C32.29417969 2.96332031 31.40085937 3.11414063 30.48046875 3.26953125 C27.68198823 4.09365071 26.76845948 4.71547214 25 7 C24.54562482 9.3597444 24.54562482 9.3597444 24.61181641 12.03125 C24.59763168 13.56930298 24.59763168 13.56930298 24.5831604 15.13842773 C24.58923309 16.24774658 24.59530579 17.35706543 24.6015625 18.5 C24.59869232 19.64605713 24.59582214 20.79211426 24.59286499 21.97290039 C24.59082106 24.40397636 24.59637375 26.83506865 24.60888672 29.26611328 C24.62481763 32.95774029 24.60910938 36.6482527 24.58984375 40.33984375 C24.59182842 42.70573156 24.59567671 45.07161868 24.6015625 47.4375 C24.59548981 48.530625 24.58941711 49.62375 24.5831604 50.75 C24.72382802 66.37773849 30.10966859 81.68463283 40.9609375 93.0546875 C54.63111494 106.13265508 72.42878618 109.444636 90.71899414 109.29248047 C94.60585851 109.19964734 98.19339392 108.83989173 102 108 C104.33301986 107.96175377 106.66711508 107.95425716 109 108 C109 108.66 109 109.32 109 110 C98.0276708 114.64213928 86.87555848 115.36205418 75.0625 115.375 C73.30389648 115.41173828 73.30389648 115.41173828 71.50976562 115.44921875 C54.24796335 115.5064086 39.9500964 108.8075894 27.73046875 96.859375 C18.58483092 87.28196886 12.90599769 76.11440201 11 63 C10.2471875 63.50789063 9.494375 64.01578125 8.71875 64.5390625 C2.63994136 68.4784846 -3.33673841 71.81385502 -10.125 74.375 C-10.74439453 74.61299316 -11.36378906 74.85098633 -12.00195312 75.09619141 C-21.99172227 78.69323445 -32.07879226 79.3880093 -42.625 79.375 C-43.84960938 79.37483887 -45.07421875 79.37467773 -46.3359375 79.37451172 C-57.4476621 79.23532213 -67.9667568 78.0166216 -78 73 C-78 70.03 -78 67.06 -78 64 C-73.42477186 64.79963447 -69.33451278 66.30514327 -65.01171875 67.96484375 C-57.49934446 70.54691792 -51.03121895 71.31525078 -43.125 71.25 C-41.73087891 71.26160156 -41.73087891 71.26160156 -40.30859375 71.2734375 C-31.07793685 71.2476895 -22.61978089 69.57477224 -14 66.3125 C-13.31647461 66.05557373 -12.63294922 65.79864746 -11.92871094 65.53393555 C-5.9744492 63.18833858 -0.99537484 59.99823606 4 56 C4.69206543 55.67338379 5.38413086 55.34676758 6.09716797 55.01025391 C9.27748677 51.6503944 8.52930078 47.66768268 8.4609375 43.22265625 C8.46002106 42.25976181 8.45910461 41.29686737 8.4581604 40.30479431 C8.45211741 38.26800612 8.43635055 36.2312271 8.41162109 34.19458008 C8.37518069 31.07795421 8.37060125 27.96251948 8.37109375 24.84570312 C8.36126005 22.86717723 8.34960195 20.88865939 8.3359375 18.91015625 C8.33371185 17.97776627 8.33148621 17.04537628 8.32919312 16.08473206 C8.31643341 15.21380417 8.30367371 14.34287628 8.29052734 13.44555664 C8.28290375 12.68183243 8.27528015 11.91810822 8.26742554 11.13124084 C7.95761461 8.66221073 7.34440914 7.09175814 6 5 C2.9665533 3.23272142 2.9665533 3.23272142 0 2 C0 1.34 0 0.68 0 0 Z " fill="#070707" transform="translate(132,125)"/>
<path d="M0 0 C3.75 0.375 3.75 0.375 6.625 2.75 C10.14040251 7.09255605 9.88705512 10.37249287 9.86352539 15.77197266 C9.86367142 16.64033249 9.86381744 17.50869232 9.8639679 18.40336609 C9.86326961 21.28195672 9.8554811 24.16048314 9.84765625 27.0390625 C9.84579177 29.03160568 9.84436801 31.02414931 9.84336853 33.01669312 C9.83954569 38.26759094 9.82971737 43.51846122 9.81866455 48.76934814 C9.80844543 54.12487414 9.80386983 59.48040457 9.79882812 64.8359375 C9.78809491 75.34897045 9.77102127 85.86198294 9.75 96.375 C5.74963683 95.04154561 4.7240033 93.00613784 2.25 89.625 C1.4765625 88.57828125 0.703125 87.5315625 -0.09375 86.453125 C-5.34658537 78.9545122 -5.34658537 78.9545122 -4.9375 76.5 C-4.710625 75.79875 -4.48375 75.0975 -4.25 74.375 C-3.76831766 69.6628091 -3.76831766 69.6628091 -5.5625 65.5 C-7.36785467 64.18953877 -7.36785467 64.18953877 -10.25 63.375 C-16.87063044 48.29467511 -14.58840451 26.48336916 -9.25 11.375 C-4.65281241 0.53686297 -4.65281241 0.53686297 0 0 Z " fill="#FBFBFA" transform="translate(31.25,80.625)"/>
<path d="M0 0 C3.45658479 2.04573386 4.7785359 3.66780385 7 7 C7.46021936 12.6146762 7.15793998 16.15030646 4 21 C0.07567389 24.63844805 -3.2137746 24.49679934 -8.3671875 24.359375 C-11.91166517 23.87555906 -13.64626284 22.65744518 -16 20 C-18.82792793 15.7581081 -18.78122286 11.98126257 -18 7 C-13.90971946 -0.60275192 -7.88581532 -0.84328083 0 0 Z " fill="#AE9654" transform="translate(89,3)"/>
<path d="M0 0 C4.38792153 2.27231651 4.38792153 2.27231651 6 5 C6.97861614 9.41038492 7.28629909 13.82354466 4.921875 17.82421875 C2.2562471 20.37999935 -0.48193988 21.33149612 -4.0625 21.5625 C-8.36116046 20.94840565 -10.01296996 20.0775461 -13 17 C-14.72869779 13.54260443 -14.48966895 9.78024432 -14 6 C-10.39618518 0.23389628 -6.67458872 -1.02590901 0 0 Z " fill="#AE9653" transform="translate(18,274)"/>
</svg>
